<?xml version="1.0" standalone="no"?>
<!DOCTYPE svg PUBLIC "-//W3C//DTD SVG 20010904//EN"
 "http://www.w3.org/TR/2001/REC-SVG-20010904/DTD/svg10.dtd">
<svg version="1.0" xmlns="http://www.w3.org/2000/svg"
 width="500.000000pt" height="500.000000pt" viewBox="0 0 500.000000 500.000000"
 preserveAspectRatio="xMidYMid meet">

<g transform="translate(0.000000,500.000000) scale(0.100000,-0.100000)"
fill="#000000" stroke="none">
<path d="M3980 3061 c-263 -84 -387 -399 -259 -654 128 -253 477 -316 686
-124 155 143 195 361 101 554 -31 63 -107 148 -166 183 -97 59 -251 77 -362
41z m292 -63 c118 -54 205 -169 229 -301 25 -137 -24 -282 -128 -377 -76 -70
-144 -94 -263 -95 -86 0 -101 3 -162 32 -113 53 -181 136 -213 260 -56 216 59
430 270 500 66 21 199 12 267 -19z"/>
<path d="M4010 2873 c-89 -47 -133 -129 -132 -251 1 -134 61 -227 168 -258
130 -37 259 37 295 170 6 23 9 75 7 117 -9 146 -92 239 -222 247 -52 3 -69 0
-116 -25z m191 -46 c110 -59 137 -268 46 -365 -52 -56 -147 -72 -221 -37 -60
29 -90 84 -95 173 -6 123 25 193 101 231 56 28 114 27 169 -2z"/>
<path d="M771 3056 c-6 -7 -87 -202 -180 -432 -152 -376 -168 -420 -153 -431
10 -9 52 -13 118 -13 119 0 119 0 155 107 l21 63 142 0 143 0 28 -75 c15 -42
35 -80 45 -85 25 -13 196 -13 221 0 22 13 42 -44 -171 485 -84 209 -158 383
-164 387 -21 14 -193 9 -205 -6z m319 -393 c79 -197 150 -373 157 -390 l13
-33 -74 0 -73 0 -30 78 -29 77 -179 0 -179 0 -27 -75 -27 -75 -75 -3 -76 -3
157 391 156 390 71 0 71 0 144 -357z"/>
<path d="M856 2802 c-14 -24 -96 -246 -96 -263 0 -18 9 -19 114 -19 63 0 117
4 120 8 10 16 -98 277 -116 280 -9 2 -19 -1 -22 -6z m48 -161 c14 -36 26 -66
26 -68 0 -2 -25 -3 -56 -3 -49 0 -55 2 -49 18 4 9 16 41 27 70 12 29 22 51 23
50 2 -2 15 -32 29 -67z"/>
<path d="M1448 3064 c-5 -4 -8 -202 -8 -440 0 -385 2 -433 16 -438 26 -10 184
-7 205 4 17 10 19 23 19 155 0 118 3 145 14 145 8 0 58 -66 111 -147 54 -82
103 -151 109 -155 13 -9 192 -10 224 -2 12 4 22 11 22 16 0 5 -48 82 -106 170
l-105 161 40 41 c115 118 114 322 -2 421 -69 59 -108 68 -332 73 -110 2 -203
0 -207 -4z m443 -67 c90 -40 131 -107 131 -212 0 -98 -34 -158 -122 -216 l-25
-16 86 -129 c47 -71 94 -141 103 -156 l18 -28 -75 0 -75 0 -98 150 -99 150
-52 0 -53 0 0 -150 0 -150 -70 0 -70 0 0 391 0 391 183 -4 c139 -4 191 -9 218
-21z"/>
<path d="M1637 2913 c-4 -3 -7 -64 -7 -135 l0 -128 70 0 c120 0 176 46 174
142 -2 55 -36 95 -96 113 -53 15 -130 20 -141 8z m146 -60 c29 -8 49 -65 36
-101 -12 -35 -45 -52 -99 -52 l-40 0 0 86 0 86 43 -7 c23 -3 50 -9 60 -12z"/>
<path d="M2277 3064 c-4 -4 -7 -202 -7 -440 0 -385 2 -433 16 -438 24 -9 477
-7 492 2 9 6 12 35 10 108 l-3 99 -137 3 -138 3 0 59 0 59 133 3 132 3 3 99
c2 73 -1 102 -10 108 -7 4 -68 8 -135 8 l-123 0 0 55 0 54 138 3 137 3 0 105
0 105 -251 3 c-138 1 -253 -1 -257 -4z m463 -104 l0 -59 -137 -3 -138 -3 -3
-102 -3 -103 136 0 135 0 0 -60 0 -59 -132 -3 -133 -3 0 -105 0 -105 138 -3
137 -3 0 -54 0 -55 -210 0 -210 0 0 390 0 390 210 0 210 0 0 -60z"/>
<path d="M2932 3058 c-9 -9 -12 -119 -12 -435 0 -407 1 -423 19 -433 21 -11
179 -14 205 -4 14 5 16 28 16 153 l0 147 103 11 c145 15 216 56 270 158 32 58
31 202 0 261 -39 74 -109 123 -201 143 -74 15 -384 15 -400 -1z m448 -64 c147
-67 176 -271 55 -383 -51 -47 -92 -60 -223 -69 l-97 -7 -3 -147 -3 -148 -69 0
-70 0 0 391 0 391 183 -4 c158 -3 188 -6 227 -24z"/>
<path d="M3122 2907 c-9 -10 -12 -49 -10 -133 l3 -119 67 -3 c121 -5 183 45
175 141 -7 77 -54 114 -160 124 -49 4 -65 2 -75 -10z m113 -47 c73 -17 99 -87
50 -135 -19 -20 -34 -25 -75 -25 l-50 0 0 78 c0 100 0 100 75 82z"/>
</g>
</svg>
