<?xml version="1.0" standalone="no"?>
<!DOCTYPE svg PUBLIC "-//W3C//DTD SVG 20010904//EN"
 "http://www.w3.org/TR/2001/REC-SVG-20010904/DTD/svg10.dtd">
<svg version="1.0" xmlns="http://www.w3.org/2000/svg"
 width="1577.000000pt" height="616.000000pt" viewBox="0 0 1577.000000 616.000000"
 preserveAspectRatio="xMidYMid meet">

<g transform="translate(0.000000,616.000000) scale(0.100000,-0.100000)"
fill="#000000" stroke="none">
<path d="M0 3080 l0 -3080 7885 0 7885 0 0 3080 0 3080 -7885 0 -7885 0 0
-3080z m13264 1325 c270 -61 502 -189 696 -384 277 -277 421 -633 421 -1041
-1 -565 -292 -1054 -772 -1295 -401 -202 -899 -200 -1301 6 -372 192 -626 536
-718 977 -26 125 -36 354 -21 493 60 551 440 1027 956 1198 184 61 258 71 480
66 123 -2 214 -9 259 -20z m-10244 -41 c32 -32 1102 -2689 1098 -2728 -5 -55
-15 -56 -411 -54 -351 3 -359 3 -376 24 -9 12 -57 130 -106 263 l-88 241 -448
0 -448 0 -19 -52 c-11 -29 -53 -142 -93 -251 -63 -171 -77 -200 -100 -213 -23
-11 -93 -14 -371 -14 -381 0 -391 2 -396 59 -3 25 125 351 533 1365 437 1083
542 1336 566 1359 l30 28 304 -3 c293 -3 305 -4 325 -24z m2679 11 c363 -52
620 -232 735 -515 89 -219 88 -533 -4 -752 -68 -165 -158 -272 -338 -404 -2
-1 148 -234 334 -516 362 -551 370 -566 314 -595 -35 -18 -724 -18 -759 0 -14
7 -151 206 -337 487 l-313 475 -45 3 -45 3 -3 -465 -3 -465 -23 -23 -23 -23
-334 0 -334 0 -23 23 -23 23 -2 1342 c-2 1064 0 1347 10 1367 25 50 26 50 586
50 416 0 545 -3 630 -15z m3052 -14 l29 -29 0 -292 0 -291 -25 -24 -24 -25
-431 0 -430 0 0 -185 0 -185 410 0 411 0 24 -25 25 -24 0 -294 c0 -275 -1
-296 -19 -318 l-19 -24 -416 -3 -416 -3 0 -184 0 -185 429 0 428 0 27 -26 26
-27 0 -291 c0 -278 -1 -293 -20 -314 -11 -11 -35 -24 -52 -27 -18 -3 -377 -5
-796 -3 l-764 3 -19 24 c-18 23 -19 59 -19 1375 1 1046 3 1355 13 1367 30 38
32 38 825 39 l774 0 29 -29z m1660 13 c476 -66 760 -350 798 -797 36 -428
-171 -783 -542 -931 -156 -62 -309 -86 -554 -86 l-163 0 0 -462 c-1 -499 1
-487 -54 -508 -17 -6 -145 -10 -332 -10 -311 0 -333 2 -361 39 -10 12 -12 321
-13 1367 l0 1351 23 20 c12 11 29 23 37 26 8 3 248 6 532 6 417 1 539 -2 629
-15z"/>
<path d="M12754 4255 c-533 -98 -938 -526 -1020 -1076 -21 -143 -15 -340 15
-487 102 -493 444 -851 920 -963 299 -70 648 -27 898 113 154 85 297 209 400
346 289 384 336 941 117 1388 -173 355 -502 604 -893 678 -101 19 -334 20
-437 1z m393 -421 c211 -43 375 -177 478 -389 73 -149 96 -245 102 -420 6
-167 -11 -283 -60 -415 -48 -127 -90 -193 -187 -290 -133 -135 -258 -187 -475
-197 -434 -20 -726 248 -785 721 -43 339 81 694 301 863 66 50 186 108 266
127 80 20 266 20 360 0z"/>
<path d="M12800 3671 c-101 -33 -154 -65 -226 -136 -145 -145 -216 -362 -200
-616 24 -406 241 -639 596 -639 176 0 299 48 410 160 138 139 198 326 187 587
-6 151 -23 225 -83 350 -74 155 -201 261 -355 298 -90 21 -259 19 -329 -4z"/>
<path d="M2275 3763 c-103 -258 -329 -818 -501 -1246 l-312 -777 236 2 237 3
90 244 c63 170 98 249 114 262 22 18 50 19 553 19 l529 0 22 -23 c13 -13 59
-121 112 -264 l89 -243 233 0 c128 0 233 3 233 8 0 4 -224 564 -497 1244
l-498 1238 -226 0 -226 0 -188 -467z m455 -210 c23 -22 61 -108 185 -425 85
-219 155 -410 155 -425 0 -14 -7 -35 -17 -45 -15 -17 -39 -18 -357 -18 -379 0
-386 1 -386 61 0 35 304 836 327 862 23 25 58 21 93 -10z"/>
<path d="M2597 3033 c-47 -125 -85 -228 -83 -230 2 -2 82 -2 178 -1 l176 3
-87 223 c-48 122 -90 224 -92 226 -3 3 -44 -97 -92 -221z"/>
<path d="M4637 4223 c-4 -3 -7 -564 -7 -1245 l0 -1238 225 0 225 0 0 464 c0
571 -19 516 176 516 75 0 143 -4 152 -9 9 -5 159 -225 332 -489 l315 -481 237
0 237 -1 -146 223 c-81 122 -224 341 -320 486 -117 177 -173 272 -173 290 0
33 26 58 97 96 174 93 296 264 339 475 20 100 15 321 -10 408 -63 227 -218
383 -455 461 -131 43 -250 51 -750 51 -257 0 -471 -3 -474 -7z m903 -343 c96
-28 158 -62 217 -119 148 -146 148 -427 0 -574 -93 -92 -222 -134 -443 -144
-156 -7 -184 -3 -214 29 -19 21 -20 34 -20 403 0 400 0 398 45 424 35 20 325
7 415 -19z"/>
<path d="M5240 3475 l0 -267 133 4 c115 3 139 7 187 29 127 59 177 176 135
317 -21 70 -61 113 -137 147 -56 26 -77 29 -190 33 l-128 4 0 -267z"/>
<path d="M7270 2985 l0 -1245 675 0 675 0 0 185 0 185 -430 0 -431 0 -24 25
-25 24 0 296 0 296 25 24 24 25 411 0 410 0 0 185 0 185 -400 0 c-271 0 -407
4 -423 11 -14 6 -30 22 -36 36 -16 34 -15 566 1 596 24 47 20 46 471 47 l427
0 0 185 0 185 -675 0 -675 0 0 -1245z"/>
<path d="M9350 2985 l0 -1245 220 0 220 0 0 455 c0 492 2 509 53 519 12 3 139
7 282 10 307 6 387 19 530 90 264 131 396 354 396 671 1 427 -232 680 -676
734 -54 7 -278 11 -557 11 l-468 0 0 -1245z m783 915 c155 -18 299 -84 360
-163 85 -111 110 -281 62 -417 -37 -106 -143 -200 -271 -239 -83 -26 -243 -44
-354 -40 -86 4 -93 6 -116 32 l-24 28 0 375 0 376 29 29 c29 28 32 29 128 29
54 0 138 -5 186 -10z"/>
<path d="M9950 3474 l0 -266 134 4 c130 3 136 5 202 38 55 28 74 45 99 84 27
45 30 57 30 135 -1 68 -5 95 -23 128 -51 98 -156 143 -333 143 l-109 0 0 -266z"/>
</g>
</svg>
